<svg width="84" height="66" viewBox="0 0 84 66" fill="none" xmlns="http://www.w3.org/2000/svg">
<path d="M81 6H66V0.75C66 0.3375 65.6625 0 65.25 0H60C59.5875 0 59.25 0.3375 59.25 0.75V6H45.375V0.75C45.375 0.3375 45.0375 0 44.625 0H39.375C38.9625 0 38.625 0.3375 38.625 0.75V6H24.75V0.75C24.75 0.3375 24.4125 0 24 0H18.75C18.3375 0 18 0.3375 18 0.75V6H3C1.34062 6 0 7.34062 0 9V63C0 64.6594 1.34062 66 3 66H81C82.6594 66 84 64.6594 84 63V9C84 7.34062 82.6594 6 81 6ZM77.25 59.25H6.75V12.75H18V18C18 18.4125 18.3375 18.75 18.75 18.75H24C24.4125 18.75 24.75 18.4125 24.75 18V12.75H38.625V18C38.625 18.4125 38.9625 18.75 39.375 18.75H44.625C45.0375 18.75 45.375 18.4125 45.375 18V12.75H59.25V18C59.25 18.4125 59.5875 18.75 60 18.75H65.25C65.6625 18.75 66 18.4125 66 18V12.75H77.25V59.25ZM33 31.5H15.75C15.3375 31.5 15 31.8375 15 32.25V36.75C15 37.1625 15.3375 37.5 15.75 37.5H33C33.4125 37.5 33.75 37.1625 33.75 36.75V32.25C33.75 31.8375 33.4125 31.5 33 31.5ZM33 44.25H15.75C15.3375 44.25 15 44.5875 15 45V49.5C15 49.9125 15.3375 50.25 15.75 50.25H33C33.4125 50.25 33.75 49.9125 33.75 49.5V45C33.75 44.5875 33.4125 44.25 33 44.25ZM61.8938 27.6188L52.1812 41.0906L47.2312 34.2375C46.95 33.8438 46.5 33.6187 46.0219 33.6187H40.875C40.2656 33.6187 39.9094 34.3125 40.2656 34.8094L50.9625 49.6406C51.1006 49.8323 51.2823 49.9884 51.4925 50.096C51.7028 50.2037 51.9356 50.2598 52.1719 50.2598C52.4081 50.2598 52.6409 50.2037 52.8512 50.096C53.0615 49.9884 53.2432 49.8323 53.3813 49.6406L68.85 28.2C69.2063 27.7031 68.85 27.0094 68.2406 27.0094H63.0938C62.625 27 62.175 27.2344 61.8938 27.6188Z" fill="#5C5C5C" fill-opacity="0.97"/>
</svg>
