<svg width="132" height="43" viewBox="0 0 132 43" fill="none" xmlns="http://www.w3.org/2000/svg">
<path d="M37.6824 5.472C37.7997 5.472 37.8951 5.516 37.9684 5.604C38.0564 5.67733 38.1004 5.77267 38.1004 5.89V6.066C38.1004 6.16867 38.0564 6.264 37.9684 6.352C37.8951 6.44 37.7997 6.484 37.6824 6.484H33.0844L31.6984 11.61H36.1424C36.2597 11.61 36.3551 11.654 36.4284 11.742C36.5164 11.8153 36.5604 11.9107 36.5604 12.028V12.204C36.5604 12.3067 36.5164 12.402 36.4284 12.49C36.3551 12.578 36.2597 12.622 36.1424 12.622H31.4344L30.0484 17.77C30.0191 17.8433 29.9751 17.902 29.9164 17.946C29.8577 17.99 29.7917 18.012 29.7184 18.012H29.1904C29.0731 18.012 28.9777 17.968 28.9044 17.88C28.8457 17.792 28.8311 17.6893 28.8604 17.572L30.1804 12.622H25.1204L23.7344 17.77C23.7051 17.8433 23.6611 17.902 23.6024 17.946C23.5437 17.99 23.4777 18.012 23.4044 18.012H22.8764C22.7591 18.012 22.6637 17.968 22.5904 17.88C22.5317 17.792 22.5171 17.6893 22.5464 17.572L23.8664 12.622H19.7964C19.6937 12.622 19.5984 12.5853 19.5104 12.512C19.4371 12.424 19.4004 12.3213 19.4004 12.204V12.028C19.4004 11.9107 19.4371 11.8153 19.5104 11.742C19.5837 11.654 19.6791 11.61 19.7964 11.61H24.1524L25.5164 6.484H21.3364C21.2337 6.484 21.1384 6.44733 21.0504 6.374C20.9771 6.286 20.9404 6.18333 20.9404 6.066V5.89C20.9404 5.77267 20.9771 5.67733 21.0504 5.604C21.1237 5.516 21.2191 5.472 21.3364 5.472H25.8024L27.0344 0.851999C27.0784 0.675999 27.1884 0.587999 27.3644 0.587999H27.8704C27.9877 0.587999 28.0831 0.631999 28.1564 0.72C28.2297 0.808 28.2517 0.910666 28.2224 1.028L27.0344 5.472H32.0944L33.3264 0.851999C33.3704 0.675999 33.4877 0.587999 33.6784 0.587999H34.1844C34.3017 0.587999 34.3971 0.631999 34.4704 0.72C34.5437 0.808 34.5657 0.910666 34.5364 1.028L33.3484 5.472H37.6824ZM25.3844 11.61H30.4444L31.8304 6.484H26.7704L25.3844 11.61ZM44.9778 17C44.8751 17 44.7945 16.9707 44.7358 16.912C44.6771 16.8387 44.6478 16.758 44.6478 16.67V6.704C44.6478 6.616 44.6185 6.54267 44.5598 6.484C44.5011 6.42533 44.4278 6.396 44.3398 6.396H38.9498C38.8765 6.396 38.8031 6.35933 38.7298 6.286C38.6711 6.198 38.6418 6.11733 38.6418 6.044V1.93C38.6418 1.85667 38.6711 1.776 38.7298 1.688C38.7885 1.62933 38.8618 1.6 38.9498 1.6H55.5378C55.6258 1.6 55.6991 1.62933 55.7578 1.688C55.8165 1.776 55.8458 1.85667 55.8458 1.93V6.044C55.8458 6.11733 55.8165 6.198 55.7578 6.286C55.6845 6.35933 55.6111 6.396 55.5378 6.396H50.1478C50.0745 6.396 50.0011 6.42533 49.9278 6.484C49.8691 6.54267 49.8398 6.616 49.8398 6.704V16.67C49.8398 16.758 49.8105 16.8387 49.7518 16.912C49.6931 16.9707 49.6125 17 49.5098 17H44.9778ZM70.6965 17H57.3645C57.2472 17 57.1445 16.9633 57.0565 16.89C56.9832 16.802 56.9465 16.6993 56.9465 16.582V2.018C56.9465 1.90067 56.9832 1.80533 57.0565 1.732C57.1445 1.644 57.2472 1.6 57.3645 1.6H70.2125C71.1072 1.6 71.9358 1.82733 72.6985 2.282C73.4758 2.722 74.0845 3.32333 74.5245 4.086C74.9792 4.834 75.2065 5.65533 75.2065 6.55C75.2065 7.43 74.9865 8.25133 74.5465 9.014C75.2652 9.92333 75.6245 10.95 75.6245 12.094C75.6245 12.9887 75.4045 13.81 74.9645 14.558C74.5245 15.306 73.9232 15.9 73.1605 16.34C72.4125 16.78 71.5912 17 70.6965 17ZM62.5785 7.188H68.5625C69.0318 7.188 69.2665 7.01933 69.2665 6.682C69.2665 6.34467 69.0318 6.176 68.5625 6.176H62.5785C62.4612 6.176 62.3585 6.22 62.2705 6.308C62.1972 6.38133 62.1605 6.47667 62.1605 6.594V6.77C62.1605 6.88733 62.1972 6.99 62.2705 7.078C62.3585 7.15133 62.4612 7.188 62.5785 7.188ZM62.5785 12.49H68.5625C69.0318 12.49 69.2665 12.3213 69.2665 11.984C69.2665 11.6467 69.0318 11.478 68.5625 11.478H62.5785C62.4612 11.478 62.3585 11.522 62.2705 11.61C62.1972 11.6833 62.1605 11.7787 62.1605 11.896V12.072C62.1605 12.1893 62.1972 12.292 62.2705 12.38C62.3585 12.4533 62.4612 12.49 62.5785 12.49ZM81.0456 17C80.2683 17 79.5496 16.802 78.8896 16.406C78.2296 15.9953 77.7016 15.4527 77.3056 14.778C76.9243 14.0887 76.7336 13.3407 76.7336 12.534V6.088C76.7336 5.26667 76.9243 4.51867 77.3056 3.844C77.7016 3.15467 78.2296 2.612 78.8896 2.216C79.5496 1.80533 80.2683 1.6 81.0456 1.6H90.4396C91.2316 1.6 91.9576 1.80533 92.6176 2.216C93.2776 2.612 93.7983 3.15467 94.1796 3.844C94.5609 4.51867 94.7516 5.26667 94.7516 6.088V12.534C94.7516 13.3407 94.5609 14.0887 94.1796 14.778C93.7983 15.4527 93.2776 15.9953 92.6176 16.406C91.9576 16.802 91.2316 17 90.4396 17H81.0456ZM88.8116 11.83C89.0169 11.83 89.1929 11.7567 89.3396 11.61C89.4863 11.4487 89.5596 11.2507 89.5596 11.016V7.518C89.5596 7.28333 89.4863 7.08533 89.3396 6.924C89.1929 6.76267 89.0169 6.682 88.8116 6.682H82.7176C82.5123 6.682 82.3289 6.76267 82.1676 6.924C82.0209 7.08533 81.9476 7.28333 81.9476 7.518V11.016C81.9476 11.2507 82.0209 11.4487 82.1676 11.61C82.3289 11.7567 82.5123 11.83 82.7176 11.83H88.8116ZM101.245 6.198C101.127 6.198 101.069 6.24933 101.069 6.352V7.254C101.069 7.35667 101.127 7.408 101.245 7.408H111.629C111.746 7.408 111.841 7.452 111.915 7.54C112.003 7.61333 112.047 7.70867 112.047 7.826V10.84C112.047 10.9573 112.003 11.06 111.915 11.148C111.841 11.2213 111.746 11.258 111.629 11.258H101.245C101.127 11.258 101.069 11.3093 101.069 11.412V12.358C101.069 12.4607 101.127 12.512 101.245 12.512H111.629C111.746 12.512 111.841 12.556 111.915 12.644C112.003 12.7173 112.047 12.8127 112.047 12.93V16.582C112.047 16.6993 112.003 16.802 111.915 16.89C111.841 16.9633 111.746 17 111.629 17H96.2727C96.1554 17 96.0527 16.9633 95.9647 16.89C95.8914 16.802 95.8547 16.6993 95.8547 16.582V2.018C95.8547 1.90067 95.8914 1.80533 95.9647 1.732C96.0527 1.644 96.1554 1.6 96.2727 1.6H111.629C111.746 1.6 111.841 1.644 111.915 1.732C112.003 1.80533 112.047 1.90067 112.047 2.018V5.78C112.047 5.89733 112.003 6 111.915 6.088C111.841 6.16133 111.746 6.198 111.629 6.198H101.245ZM4.30341 43C3.52607 43 2.80741 42.802 2.14741 42.406C1.48741 41.9953 0.959406 41.4527 0.563406 40.778C0.182073 40.0887 -0.00859374 39.3407 -0.00859374 38.534V32.066C-0.00859374 31.2593 0.182073 30.5187 0.563406 29.844C0.959406 29.1547 1.48741 28.612 2.14741 28.216C2.80741 27.8053 3.52607 27.6 4.30341 27.6H16.1614C16.2787 27.6 16.3741 27.644 16.4474 27.732C16.5354 27.8053 16.5794 27.9007 16.5794 28.018V32C16.5794 32.1173 16.5354 32.22 16.4474 32.308C16.3741 32.3813 16.2787 32.418 16.1614 32.418H5.62341C5.50607 32.418 5.40341 32.462 5.31541 32.55C5.24207 32.6233 5.20541 32.7187 5.20541 32.836V37.654C5.20541 37.7713 5.24207 37.874 5.31541 37.962C5.40341 38.0353 5.50607 38.072 5.62341 38.072H16.1614C16.2787 38.072 16.3741 38.116 16.4474 38.204C16.5354 38.2773 16.5794 38.3727 16.5794 38.49V42.582C16.5794 42.6993 16.5354 42.802 16.4474 42.89C16.3741 42.9633 16.2787 43 16.1614 43H4.30341ZM21.985 43C21.2077 43 20.489 42.802 19.829 42.406C19.169 41.9953 18.641 41.4527 18.245 40.778C17.8637 40.0887 17.673 39.3407 17.673 38.534V32.088C17.673 31.2667 17.8637 30.5187 18.245 29.844C18.641 29.1547 19.169 28.612 19.829 28.216C20.489 27.8053 21.2077 27.6 21.985 27.6H31.379C32.171 27.6 32.897 27.8053 33.557 28.216C34.217 28.612 34.7377 29.1547 35.119 29.844C35.5004 30.5187 35.691 31.2667 35.691 32.088V38.534C35.691 39.3407 35.5004 40.0887 35.119 40.778C34.7377 41.4527 34.217 41.9953 33.557 42.406C32.897 42.802 32.171 43 31.379 43H21.985ZM29.751 37.83C29.9564 37.83 30.1324 37.7567 30.279 37.61C30.4257 37.4487 30.499 37.2507 30.499 37.016V33.518C30.499 33.2833 30.4257 33.0853 30.279 32.924C30.1324 32.7627 29.9564 32.682 29.751 32.682H23.657C23.4517 32.682 23.2684 32.7627 23.107 32.924C22.9604 33.0853 22.887 33.2833 22.887 33.518V37.016C22.887 37.2507 22.9604 37.4487 23.107 37.61C23.2684 37.7567 23.4517 37.83 23.657 37.83H29.751ZM37.3441 43C37.2121 43 37.1021 42.956 37.0141 42.868C36.9408 42.78 36.9041 42.67 36.9041 42.538L36.7941 28.172C36.7941 28.04 36.8528 27.9153 36.9701 27.798C37.0875 27.666 37.2121 27.6 37.3441 27.6H54.1961C54.2841 27.6 54.3575 27.6367 54.4161 27.71C54.4748 27.7833 54.5041 27.8713 54.5041 27.974V31.802C54.5041 31.9047 54.4748 31.9927 54.4161 32.066C54.3575 32.1393 54.2841 32.176 54.1961 32.176H42.9101C42.6755 32.176 42.4995 32.2273 42.3821 32.33C42.2648 32.4327 42.2061 32.5647 42.2061 32.726C42.2061 32.8873 42.2648 33.0267 42.3821 33.144C42.5141 33.2467 42.6901 33.298 42.9101 33.298L49.9061 33.32C51.3728 33.32 52.5681 33.738 53.4921 34.574C54.4161 35.3953 54.8781 36.598 54.8781 38.182C54.8781 39.0913 54.6581 39.9127 54.2181 40.646C53.7928 41.3793 53.1988 41.9587 52.4361 42.384C51.6881 42.7947 50.8448 43 49.9061 43H37.3441ZM48.7401 38.732C48.9308 38.732 49.0921 38.6807 49.2241 38.578C49.3708 38.4607 49.4441 38.3067 49.4441 38.116C49.4441 37.9253 49.3708 37.7787 49.2241 37.676C49.0921 37.5733 48.9308 37.522 48.7401 37.522H42.5141C42.3968 37.522 42.3381 37.5733 42.3381 37.676V38.578C42.3381 38.6807 42.3968 38.732 42.5141 38.732H48.7401ZM77.4957 27.6C77.569 27.6 77.635 27.6293 77.6937 27.688C77.767 27.7467 77.8037 27.82 77.8037 27.908V42.67C77.8037 42.7433 77.767 42.8167 77.6937 42.89C77.635 42.9487 77.569 42.978 77.4957 42.978H72.8977C72.8097 42.978 72.7364 42.9487 72.6777 42.89C72.619 42.8167 72.5897 42.7433 72.5897 42.67V27.908C72.5897 27.82 72.619 27.7467 72.6777 27.688C72.7364 27.6293 72.8097 27.6 72.8977 27.6H77.4957ZM71.7757 37.764C71.7757 38.8787 71.5337 39.832 71.0497 40.624C70.5804 41.4013 69.9424 41.9953 69.1357 42.406C68.3437 42.802 67.4784 43 66.5397 43H56.3537C56.251 43 56.163 42.9633 56.0897 42.89C56.0164 42.8167 55.9797 42.7287 55.9797 42.626V27.996C55.9797 27.8787 56.0164 27.7907 56.0897 27.732C56.163 27.6587 56.251 27.622 56.3537 27.622H60.8197C60.9224 27.622 61.0104 27.6587 61.0837 27.732C61.157 27.8053 61.1937 27.8933 61.1937 27.996V32.088C61.1937 32.2053 61.223 32.2933 61.2817 32.352C61.355 32.4253 61.443 32.462 61.5457 32.462L66.5397 32.484C67.449 32.484 68.307 32.7113 69.1137 33.166C69.9204 33.6207 70.5657 34.2513 71.0497 35.058C71.5337 35.8647 71.7757 36.7667 71.7757 37.764ZM66.4077 37.632C66.4077 37.456 66.3417 37.3167 66.2097 37.214C66.0924 37.0967 65.9237 37.038 65.7037 37.038L61.6557 37.016C61.5677 37.016 61.5017 37.038 61.4577 37.082C61.399 37.1407 61.3697 37.192 61.3697 37.236V37.984C61.3697 38.028 61.399 38.0793 61.4577 38.138C61.5017 38.182 61.5677 38.204 61.6557 38.204H65.7037C65.9384 38.204 66.1144 38.1527 66.2317 38.05C66.349 37.9327 66.4077 37.7933 66.4077 37.632ZM85.2395 43C85.1368 43 85.0562 42.9707 84.9975 42.912C84.9388 42.8387 84.9095 42.758 84.9095 42.67V32.704C84.9095 32.616 84.8802 32.5427 84.8215 32.484C84.7628 32.4253 84.6895 32.396 84.6015 32.396H79.2115C79.1382 32.396 79.0648 32.3593 78.9915 32.286C78.9328 32.198 78.9035 32.1173 78.9035 32.044V27.93C78.9035 27.8567 78.9328 27.776 78.9915 27.688C79.0502 27.6293 79.1235 27.6 79.2115 27.6H95.7995C95.8875 27.6 95.9608 27.6293 96.0195 27.688C96.0782 27.776 96.1075 27.8567 96.1075 27.93V32.044C96.1075 32.1173 96.0782 32.198 96.0195 32.286C95.9462 32.3593 95.8728 32.396 95.7995 32.396H90.4095C90.3362 32.396 90.2628 32.4253 90.1895 32.484C90.1308 32.5427 90.1015 32.616 90.1015 32.704V42.67C90.1015 42.758 90.0722 42.8387 90.0135 42.912C89.9548 42.9707 89.8742 43 89.7715 43H85.2395ZM102.598 37.676L105.238 27.82C105.282 27.6733 105.378 27.6 105.524 27.6H114.412C114.5 27.6 114.574 27.6367 114.632 27.71C114.691 27.7687 114.72 27.8347 114.72 27.908V42.67C114.72 42.758 114.684 42.8387 114.61 42.912C114.552 42.9707 114.478 43 114.39 43H109.836C109.734 43 109.653 42.9707 109.594 42.912C109.536 42.8387 109.506 42.758 109.506 42.67V32.902C109.506 32.8433 109.47 32.814 109.396 32.814C109.338 32.7993 109.301 32.8213 109.286 32.88L106.646 42.758C106.602 42.9047 106.5 42.978 106.338 42.978L97.5162 43C97.4429 43 97.3695 42.9707 97.2962 42.912C97.2375 42.8533 97.2082 42.78 97.2082 42.692V27.952C97.2082 27.8493 97.2375 27.7687 97.2962 27.71C97.3695 27.6367 97.4502 27.6 97.5382 27.6H102.092C102.18 27.6 102.254 27.6367 102.312 27.71C102.386 27.7687 102.422 27.8493 102.422 27.952V37.654C102.422 37.698 102.444 37.7273 102.488 37.742C102.547 37.742 102.584 37.72 102.598 37.676ZM121.204 32.198C121.086 32.198 121.028 32.2493 121.028 32.352V33.254C121.028 33.3567 121.086 33.408 121.204 33.408H131.588C131.705 33.408 131.8 33.452 131.874 33.54C131.962 33.6133 132.006 33.7087 132.006 33.826V36.84C132.006 36.9573 131.962 37.06 131.874 37.148C131.8 37.2213 131.705 37.258 131.588 37.258H121.204C121.086 37.258 121.028 37.3093 121.028 37.412V38.358C121.028 38.4607 121.086 38.512 121.204 38.512H131.588C131.705 38.512 131.8 38.556 131.874 38.644C131.962 38.7173 132.006 38.8127 132.006 38.93V42.582C132.006 42.6993 131.962 42.802 131.874 42.89C131.8 42.9633 131.705 43 131.588 43H116.232C116.114 43 116.012 42.9633 115.924 42.89C115.85 42.802 115.814 42.6993 115.814 42.582V28.018C115.814 27.9007 115.85 27.8053 115.924 27.732C116.012 27.644 116.114 27.6 116.232 27.6H131.588C131.705 27.6 131.8 27.644 131.874 27.732C131.962 27.8053 132.006 27.9007 132.006 28.018V31.78C132.006 31.8973 131.962 32 131.874 32.088C131.8 32.1613 131.705 32.198 131.588 32.198H121.204Z" fill="#D58E54"/>
</svg>
